<svg class="svg-icon" style="width: 1em; height: 1em;vertical-align: middle;fill: currentColor;overflow: hidden;" viewBox="0 0 1024 1024" version="1.1" xmlns="http://www.w3.org/2000/svg"><path d="M768.073143 548.571429l0-73.142857q0-14.848-10.825143-25.746286t-25.746286-10.825143l-146.285714 0 0-146.285714q0-14.848-10.825143-25.746286t-25.746286-10.825143l-73.142857 0q-14.848 0-25.746286 10.825143t-10.825143 25.746286l0 146.285714-146.285714 0q-14.848 0-25.746286 10.825143t-10.825143 25.746286l0 73.142857q0 14.848 10.825143 25.746286t25.746286 10.825143l146.285714 0 0 146.285714q0 14.848 10.825143 25.746286t25.746286 10.825143l73.142857 0q14.848 0 25.746286-10.825143t10.825143-25.746286l0-146.285714 146.285714 0q14.848 0 25.746286-10.825143t10.825143-25.746286zM950.930286 512q0 119.442286-58.88 220.306286t-159.744 159.744-220.306286 58.88-220.306286-58.88-159.744-159.744-58.88-220.306286 58.88-220.306286 159.744-159.744 220.306286-58.88 220.306286 58.88 159.744 159.744 58.88 220.306286z"  /></svg>